<?xml version="1.0" standalone="no"?>
<!DOCTYPE svg PUBLIC "-//W3C//DTD SVG 20010904//EN"
 "http://www.w3.org/TR/2001/REC-SVG-20010904/DTD/svg10.dtd">
<svg version="1.0" xmlns="http://www.w3.org/2000/svg"
 width="658.000000pt" height="658.000000pt" viewBox="0 0 658.000000 658.000000"
 preserveAspectRatio="xMidYMid meet">
<metadata>
Created by potrace 1.14, written by Peter Selinger 2001-2017
</metadata>
<g transform="translate(0.000000,658.000000) scale(0.100000,-0.100000)"
fill="#000000" stroke="none">
<path d="M3080 5819 c-206 -23 -419 -71 -627 -142 -440 -152 -885 -466 -1182
-837 -293 -364 -470 -769 -538 -1225 -22 -152 -25 -583 -5 -720 111 -746 524
-1381 1159 -1784 340 -216 658 -334 1059 -395 208 -32 367 -40 538 -26 412 32
754 128 1071 302 237 129 401 249 585 425 428 409 687 921 765 1508 19 142 21
465 5 605 -70 584 -319 1102 -724 1506 -244 243 -454 392 -767 543 -231 112
-463 184 -725 226 -119 19 -491 28 -614 14z m483 -641 c33 -17 34 -46 8 -159
l-26 -109 -75 0 c-41 0 -86 -3 -99 -7 -23 -6 -24 -5 -17 38 38 250 46 265 135
254 31 -4 64 -11 74 -17z m-464 -17 c11 -11 29 -53 41 -93 12 -40 30 -102 41
-137 11 -35 18 -65 17 -65 -2 -1 -42 -21 -91 -45 -48 -24 -89 -42 -91 -40 -11
14 -96 289 -96 310 0 33 17 47 83 70 67 23 73 23 96 0z m791 -74 c74 -43 75
-61 10 -175 l-51 -89 -82 33 c-63 26 -81 38 -79 51 5 25 81 175 100 196 22 24
40 22 102 -16z m-1324 -68 c44 -29 116 -88 161 -132 94 -91 181 -213 167 -232
-5 -7 -31 -39 -57 -71 -41 -50 -114 -186 -155 -285 -8 -21 -20 -28 -53 -33
-55 -9 -184 -53 -226 -77 l-33 -18 0 22 c1 78 70 274 137 383 55 91 67 102 96
84 l22 -13 -20 24 c-31 36 -52 54 -152 130 -50 38 -94 78 -98 89 -12 37 82
180 118 180 8 0 50 -23 93 -51z m1137 -273 c99 -33 158 -63 227 -115 53 -39
164 -160 156 -169 -3 -2 -69 -15 -148 -28 -79 -13 -157 -29 -174 -34 -26 -9
-40 -6 -90 17 -51 24 -72 28 -149 28 -80 0 -97 -3 -155 -31 -78 -37 -146 -104
-186 -182 -27 -52 -29 -66 -29 -167 0 -60 4 -124 8 -141 7 -29 1 -38 -138
-192 -80 -89 -147 -162 -149 -162 -1 0 -2 44 -3 98 0 77 -6 114 -27 182 -51
159 -58 200 -53 285 16 248 198 498 430 592 102 41 171 53 292 49 86 -3 127
-9 188 -30z m766 -395 c33 -33 55 -217 29 -239 -7 -5 -71 -17 -141 -27 -348
-46 -506 -110 -609 -247 -73 -96 -113 -218 -143 -434 -9 -66 -23 -146 -32
-179 -23 -90 -96 -233 -147 -292 l-46 -51 0 -166 c0 -159 -1 -165 -22 -180
-30 -21 -54 -20 -78 4 -18 18 -20 33 -20 136 0 89 -3 115 -12 111 -115 -48
-153 -60 -204 -65 -58 -4 -63 -3 -79 21 -14 23 -15 30 -3 54 11 23 29 33 103
58 127 43 171 69 240 139 71 73 106 134 134 235 20 74 20 74 1 102 -27 36
-133 121 -195 153 -27 15 -80 36 -117 47 l-68 21 39 47 c21 25 69 82 106 126
110 132 114 143 86 278 -12 55 0 133 28 187 l18 35 104 -3 c92 -3 133 2 359
47 289 56 545 99 608 100 29 1 48 -5 61 -18z m-1826 -292 c4 -35 27 -115 49
-179 37 -103 41 -125 42 -210 0 -81 -3 -103 -25 -150 -35 -74 -88 -126 -195
-190 -132 -79 -238 -190 -295 -307 -24 -51 -47 -92 -50 -92 -19 -2 -62 48 -89
102 -46 94 -63 191 -57 322 10 194 70 360 181 501 101 128 206 199 396 267 28
10 35 0 43 -64z m1916 -114 c21 -28 38 -136 27 -180 -7 -29 -3 -28 -193 -50
l-141 -17 -44 25 c-72 42 -152 60 -238 54 -41 -3 -84 -9 -95 -13 -16 -5 -14 0
10 25 61 67 193 116 396 150 228 37 252 38 278 6z m-440 -330 c78 -36 161
-121 203 -212 25 -53 33 -84 36 -149 5 -95 -7 -141 -50 -190 -83 -94 -262 -55
-419 93 -144 136 -178 297 -87 407 72 88 192 107 317 51z m-1610 -519 c-12
-86 1 -164 43 -257 35 -78 32 -114 -7 -129 -38 -15 -68 5 -102 68 -44 80 -66
164 -60 226 4 46 9 55 67 109 34 32 64 57 66 55 1 -2 -1 -35 -7 -72z m1230 10
c42 -43 42 -43 40 -112 -2 -68 -2 -69 39 -116 55 -61 149 -123 217 -143 67
-19 94 -52 77 -91 -20 -43 -51 -49 -129 -26 -67 21 -174 82 -202 115 -22 27
-29 20 -41 -36 -13 -65 -41 -156 -68 -223 l-21 -51 33 -46 c60 -85 126 -254
126 -325 0 -41 -18 -62 -54 -62 -42 0 -51 10 -77 96 -25 81 -86 207 -98 202
-5 -2 -30 -29 -55 -60 l-46 -57 0 -227 c0 -250 -3 -264 -61 -264 -55 0 -59 14
-59 206 0 96 -2 174 -5 174 -2 0 -35 -20 -73 -44 -126 -82 -194 -95 -208 -40
-9 36 9 70 48 90 135 69 286 204 362 322 85 132 147 337 161 532 7 95 32 230
44 230 4 0 26 -20 50 -44z m700 -241 c15 -143 -6 -299 -61 -455 -66 -185 -184
-397 -327 -588 -249 -330 -429 -452 -666 -452 -202 0 -355 98 -705 449 -161
161 -226 234 -298 336 -153 215 -239 407 -258 575 l-7 61 29 -7 c91 -22 96
-26 114 -95 57 -208 163 -386 382 -642 177 -206 439 -435 577 -505 72 -35 79
-37 176 -37 97 0 104 1 181 39 66 33 98 58 194 155 336 338 573 823 545 1117
l-6 70 53 42 c29 22 56 38 60 34 4 -4 12 -48 17 -97z"/>
</g>
</svg>
